<?xml version="1.0" encoding="UTF-8"?>
<svg id="Layer_1" xmlns="http://www.w3.org/2000/svg" version="1.1" viewBox="0 0 161 161">
  <defs>
    <style>
      .st0 {
        fill: #47D7AC;
      }
    </style>
  </defs>
  <path class="st0" d="M136.3,70.4l-9.4-9.4c-1.6-1.6-4.3-1.6-6,0-1.6,1.6-1.6,4.3,0,6l2.3,2.3c-9.6,13.2-25.2,21.7-42.7,21.7s-33.1-8.6-42.7-21.8l2.3-2.3c1.6-1.6,1.6-4.3,0-6-1.6-1.6-4.3-1.6-6,0l-9.4,9.4c-1.6,1.6-1.6,4.3,0,6,.8.8,1.9,1.2,3,1.2s2.2-.4,3-1.2l1.1-1.1c11.2,14.7,28.9,24.2,48.7,24.2s37.5-9.5,48.7-24.2l1.1,1.1c.8.8,1.9,1.2,3,1.2s2.2-.4,3-1.2c1.6-1.6,1.6-4.3,0-6"/>
  <path class="st0" d="M152.5,8.5v144H8.5V8.5h144M161,0H0v161h161V0h0Z"/>
</svg>
